<svg id="Layer_1" data-name="Layer 1" xmlns="http://www.w3.org/2000/svg" viewBox="0 0 46.1 42.03"><defs><style>.cls-1{fill:#10302d;fill-rule:evenodd;}</style></defs><path class="cls-1" d="M34.6,4a6.72,6.72,0,0,0-2.4.4,16.16,16.16,0,0,0-5.1,3c-.7.6-1.4,1.2-2.1,1.9-.7-.7-1.4-1.3-2-1.8a17.32,17.32,0,0,0-5.1-3,6,6,0,0,0-4.6.2,5.74,5.74,0,0,0-2.5,3.9,16.64,16.64,0,0,0,0,5.9,20.48,20.48,0,0,0,.5,2.4c-.8.2-1.5.5-2.2.7a15.69,15.69,0,0,0-5,2.9A5.89,5.89,0,0,0,2,24.6a5.7,5.7,0,0,0,2.1,4.1,16.06,16.06,0,0,0,5,2.9c.7.3,1.5.5,2.3.8-.3,1.1-.5,2.2-.7,3.2a14.6,14.6,0,0,0,0,5.9,6,6,0,0,0,2.5,3.9,5.26,5.26,0,0,0,4.6.2,19.85,19.85,0,0,0,5.1-3c.7-.6,1.4-1.2,2.1-1.9.7.7,1.4,1.3,2.1,1.9a17.32,17.32,0,0,0,5.1,3,6,6,0,0,0,4.6-.2,5.74,5.74,0,0,0,2.5-3.9,16.64,16.64,0,0,0,0-5.9c-.2-1-.4-2.1-.7-3.2.8-.3,1.7-.5,2.4-.8a15.69,15.69,0,0,0,5-2.9,5.7,5.7,0,0,0,2.1-4.1A5.52,5.52,0,0,0,46,20.5a15,15,0,0,0-5-2.9c-.7-.3-1.4-.5-2.2-.8.2-.8.4-1.7.5-2.4a14.6,14.6,0,0,0,0-5.9,6,6,0,0,0-2.5-3.9A4.56,4.56,0,0,0,34.6,4Zm-.1,2a2.77,2.77,0,0,1,1.3.3,3.6,3.6,0,0,1,1.5,2.5,13.12,13.12,0,0,1-.1,5.2,17.42,17.42,0,0,1-.5,2.2A42.59,42.59,0,0,0,30,15.1a34.18,34.18,0,0,0-3.7-4.5c.7-.6,1.3-1.2,1.9-1.8a15.14,15.14,0,0,1,4.4-2.6A17.63,17.63,0,0,1,34.5,6Zm-19,0a5.55,5.55,0,0,1,1.7.3A12.74,12.74,0,0,1,21.6,9c.6.5,1.3,1.1,1.9,1.7a43.71,43.71,0,0,0-3.7,4.6,41.27,41.27,0,0,0-6.6,1.1,22.5,22.5,0,0,1-.5-2.2A18.45,18.45,0,0,1,12.6,9a3.6,3.6,0,0,1,1.5-2.5A2.65,2.65,0,0,1,15.5,6ZM25,12.1c.8.9,1.6,1.9,2.4,2.9H25a20.9,20.9,0,0,0-2.5.1C23.3,14,24.2,13,25,12.1ZM25,17c1.4,0,2.7.1,4,.2a41,41,0,0,1,2.6,4.1c.7,1.3,1.4,2.5,2,3.8-.6,1.3-1.3,2.5-2,3.8a34.47,34.47,0,0,1-2,3.2c-1.5.1-3,.2-4.5.2s-3.1-.1-4.6-.2c-.7-1-1.3-2.1-2-3.2-.7-1.3-1.4-2.5-2-3.8.6-1.3,1.3-2.5,2-3.8a39.37,39.37,0,0,1,2.6-4A23.76,23.76,0,0,1,25,17Zm6.5.4c1.6.2,3.2.5,4.6.8-.4,1.4-1,2.9-1.6,4.4-.4-.8-.8-1.6-1.3-2.4A26.06,26.06,0,0,0,31.5,17.4Zm-13.2,0c-.6.9-1.1,1.8-1.7,2.8-.5.8-.9,1.6-1.3,2.4-.6-1.5-1.2-3-1.6-4.3A34,34,0,0,1,18.3,17.4Zm19.9,1.4a11.76,11.76,0,0,1,2,.7A13.78,13.78,0,0,1,44.6,22,3.58,3.58,0,0,1,46,24.6a3.58,3.58,0,0,1-1.4,2.6,13.78,13.78,0,0,1-4.4,2.5c-.7.3-1.5.5-2.3.8A48.47,48.47,0,0,0,35.7,25,35,35,0,0,0,38.2,18.8Zm-26.4,0A49,49,0,0,0,14.2,25,48.47,48.47,0,0,0,12,30.5c-.8-.2-1.5-.5-2.2-.7a13.78,13.78,0,0,1-4.4-2.5A3.76,3.76,0,0,1,4,24.6,3.58,3.58,0,0,1,5.4,22a13.78,13.78,0,0,1,4.4-2.5A11.76,11.76,0,0,1,11.8,18.8ZM25,20a5,5,0,1,0,5,5A5.08,5.08,0,0,0,25,20Zm-9.7,7.4c.4.8.9,1.6,1.3,2.4.4.6.7,1.3,1.1,1.9-1.3-.2-2.6-.4-3.8-.7C14.4,29.8,14.8,28.6,15.3,27.4Zm19.3,0c.5,1.2,1,2.5,1.4,3.6-1.2.3-2.5.5-3.8.7a11.78,11.78,0,0,0,1.1-1.9C33.8,29,34.2,28.2,34.6,27.4ZM13.4,32.9a48.26,48.26,0,0,0,5.9,1,48.54,48.54,0,0,0,4.3,5.4c-.7.6-1.3,1.2-1.9,1.7a14.28,14.28,0,0,1-4.5,2.6,3.41,3.41,0,0,1-3-.1A3.6,3.6,0,0,1,12.7,41a13.12,13.12,0,0,1,.1-5.2A21.51,21.51,0,0,1,13.4,32.9Zm23.2,0c.3,1,.5,2.1.7,3a18.45,18.45,0,0,1,.1,5.2,3.72,3.72,0,0,1-1.5,2.6,3.38,3.38,0,0,1-3,.1,15.45,15.45,0,0,1-4.5-2.6,15.73,15.73,0,0,1-1.9-1.8A48.54,48.54,0,0,0,30.8,34,54,54,0,0,0,36.6,32.9ZM21.9,34.1c1,.1,2.1.1,3.1.1s2,0,3-.1a40.3,40.3,0,0,1-3.1,3.7A40,40,0,0,1,21.9,34.1Z" transform="translate(-2 -4)"/></svg>