<?xml version="1.0" encoding="utf-8"?>
<!-- Generator: Adobe Illustrator 25.0.1, SVG Export Plug-In . SVG Version: 6.00 Build 0)  -->
<svg version="1.1" id="Layer_1" xmlns="http://www.w3.org/2000/svg" xmlns:xlink="http://www.w3.org/1999/xlink" x="0px" y="0px"
	 viewBox="0 0 50 50" style="enable-background:new 0 0 50 50;" xml:space="preserve">
<style type="text/css">
	.st0{fill:#10302D;}
</style>
<g id="surface3722317">
	<path class="st0" d="M25,4.7c-0.8,0-1.5,0.2-2.2,0.6L9.6,13c-1.3,0.8-2.2,2.2-2.2,3.8v17c0,1.6,0.9,3.1,2.3,3.8l4.3,2.3
		c0.7,0.4,1.4,0.5,2.1,0.5c0.8,0,1.5-0.2,2.2-0.6c1.3-0.8,2.1-2.2,2.1-3.8V17.6h-2.9v18.5c0,0.8-0.5,1.1-0.7,1.3
		c-0.2,0.1-0.8,0.4-1.4,0l-4.3-2.3c-0.5-0.3-0.8-0.8-0.8-1.3v-17c0-0.5,0.3-1,0.7-1.3l13.1-7.7c0.5-0.3,1-0.3,1.5,0l13.1,7.7
		c0.4,0.3,0.7,0.8,0.7,1.3v17c0,0.5-0.3,1-0.8,1.3l-13.1,7.1c-0.4,0.2-1,0.2-1.4,0l-2.6-1.4c-0.5,0.6-1.1,1.2-1.8,1.6
		c-0.2,0.1-0.5,0.3-0.7,0.3l3.7,2c0.7,0.4,1.4,0.5,2.1,0.5s1.4-0.2,2.1-0.5l13.1-7.2c1.4-0.8,2.3-2.2,2.3-3.8v-17
		c0-1.5-0.8-3-2.2-3.8L27.2,5.3C26.5,4.9,25.8,4.7,25,4.7z M29.2,17.2c-4.6,0-6.9,1.6-6.9,4.8c0,3.6,4.1,4.1,6.1,4.4
		c0.3,0,0.5,0.1,0.7,0.1l0.9,0.1c3,0.5,3.7,0.9,3.7,1.8c0,0.5,0,1.9-4.5,1.9c-3.8,0-4.6-1.1-4.6-2.9h-2.9c0,2.6,1.3,5.8,7.5,5.8
		c6.1,0,7.4-2.6,7.4-4.8c0-3.7-3.6-4.3-6.2-4.7l-0.8-0.1c-0.3,0-0.6-0.1-0.9-0.1c-1.9-0.2-3.6-0.6-3.6-1.5c0-0.6,0-1.9,4-1.9
		c2.7,0,4,0.9,4,2.6h2.9C36.2,20.1,34.4,17.2,29.2,17.2L29.2,17.2z"/>
</g>
</svg>
