<svg id="Layer_1" data-name="Layer 1" xmlns="http://www.w3.org/2000/svg" viewBox="0 0 40 40"><defs><style>.cls-1{fill:#f5f5f7;}</style></defs><path class="cls-1" d="M6.19,27.39a1.11,1.11,0,0,1-.67-.18.78.78,0,0,1-.29-.52A1.22,1.22,0,0,1,5.37,26l6.38-14.45a1.51,1.51,0,0,1,.54-.71,1.26,1.26,0,0,1,.72-.23,1.21,1.21,0,0,1,.72.23,1.74,1.74,0,0,1,.55.71L20.66,26a1.35,1.35,0,0,1,.15.73.69.69,0,0,1-.27.52,1,1,0,0,1-.65.17,1.13,1.13,0,0,1-.75-.24,2,2,0,0,1-.49-.72L17,22.55l1,.57H8l1-.57L7.33,26.43a1.92,1.92,0,0,1-.46.74A1,1,0,0,1,6.19,27.39ZM13,13.2,9.32,21.83l-.56-.49h8.46l-.53.49L13,13.2Z"/><path class="cls-1" d="M23,29.42a.47.47,0,0,1-.52-.54V22a.54.54,0,0,1,.13-.4.56.56,0,0,1,.39-.13.53.53,0,0,1,.39.13.54.54,0,0,1,.14.4v1.07l-.13-.21a1.8,1.8,0,0,1,.74-1,2.19,2.19,0,0,1,1.32-.39,2.3,2.3,0,0,1,2.19,1.38,3.6,3.6,0,0,1,.32,1.57A3.67,3.67,0,0,1,27.61,26a2.35,2.35,0,0,1-.88,1,2.4,2.4,0,0,1-1.32.36A2.18,2.18,0,0,1,24.1,27a1.89,1.89,0,0,1-.74-1h.13v2.95a.57.57,0,0,1-.14.4A.56.56,0,0,1,23,29.42Zm2.21-2.93a1.59,1.59,0,0,0,.88-.24,1.57,1.57,0,0,0,.59-.72,2.78,2.78,0,0,0,.21-1.15,2.39,2.39,0,0,0-.45-1.57,1.53,1.53,0,0,0-1.23-.54,1.62,1.62,0,0,0-.89.24,1.54,1.54,0,0,0-.59.71,2.84,2.84,0,0,0-.2,1.16A2.41,2.41,0,0,0,23.93,26,1.54,1.54,0,0,0,25.16,26.49Z"/><path class="cls-1" d="M29.81,29.42a.52.52,0,0,1-.38-.14.53.53,0,0,1-.14-.4V22a.5.5,0,0,1,.14-.4.52.52,0,0,1,.38-.13.53.53,0,0,1,.39.13.54.54,0,0,1,.14.4v1.07l-.13-.21a1.8,1.8,0,0,1,.74-1,2.19,2.19,0,0,1,1.32-.39,2.42,2.42,0,0,1,1.32.36,2.36,2.36,0,0,1,.87,1,3.47,3.47,0,0,1,.32,1.57A3.67,3.67,0,0,1,34.47,26a2.35,2.35,0,0,1-.88,1,2.4,2.4,0,0,1-1.32.36A2.18,2.18,0,0,1,31,27a1.89,1.89,0,0,1-.74-1h.13v2.95a.57.57,0,0,1-.14.4A.56.56,0,0,1,29.81,29.42ZM32,26.49a1.59,1.59,0,0,0,.88-.24,1.51,1.51,0,0,0,.59-.72,2.77,2.77,0,0,0,.22-1.15,2.39,2.39,0,0,0-.46-1.57A1.52,1.52,0,0,0,32,22.27a1.62,1.62,0,0,0-.89.24,1.54,1.54,0,0,0-.59.71,3,3,0,0,0-.2,1.16A2.41,2.41,0,0,0,30.79,26,1.54,1.54,0,0,0,32,26.49Z"/></svg>