<svg id="Layer_1" data-name="Layer 1" xmlns="http://www.w3.org/2000/svg" viewBox="0 0 30 30"><defs><style>.cls-1{fill:#f5f5f7;}</style></defs><path class="cls-1" d="M15,3a12,12,0,0,0-2.9,23.6c-.1-.1-.1-.3-.1-.6V24H10.5a2.15,2.15,0,0,1-1.9-1c-.4-.7-.5-1.8-1.4-2.5-.3-.3-.1-.5.2-.5A3.57,3.57,0,0,1,9,21.2a1.62,1.62,0,0,0,1.6.8,10.9,10.9,0,0,0,1.7-.1,4,4,0,0,1,1.6-2c-4-.4-5.9-2.4-5.9-5.1a4.82,4.82,0,0,1,1.3-3.2c-.2-1-.6-2.9.1-3.6a4,4,0,0,1,3.1,1.5,10.47,10.47,0,0,1,3-.5,9.29,9.29,0,0,1,2.9.5A4.47,4.47,0,0,1,21.6,8c.7.7.4,2.7.1,3.6A5,5,0,0,1,23,14.8c0,2.7-1.9,4.7-5.9,5.1A4.27,4.27,0,0,1,19,23.3v3A11.91,11.91,0,0,0,27,15,12,12,0,0,0,15,3Z"/></svg>