<?xml version="1.0" encoding="utf-8"?>
<!-- Generator: Adobe Illustrator 25.0.1, SVG Export Plug-In . SVG Version: 6.00 Build 0)  -->
<svg version="1.1" id="Layer_1" xmlns="http://www.w3.org/2000/svg" xmlns:xlink="http://www.w3.org/1999/xlink" x="0px" y="0px"
	 viewBox="0 0 30 30" style="enable-background:new 0 0 30 30;" xml:space="preserve">
<style type="text/css">
	.st0{fill:#F5F5F7;}
</style>
<path class="st0" d="M24.3,3H5.7C4.2,3,3,4.2,3,5.7v18.7C3,25.8,4.2,27,5.7,27h18.7c1.5,0,2.7-1.2,2.7-2.7V5.7C27,4.2,25.8,3,24.3,3
	z M9.3,21.7L9.3,21.7c-0.9,0-1.7-0.8-1.7-1.7v-6c0-0.9,0.8-1.7,1.7-1.7l0,0c0.9,0,1.7,0.8,1.7,1.7v6C11,20.9,10.2,21.7,9.3,21.7z
	 M9.3,10.6c-1,0-1.7-0.7-1.7-1.6s0.7-1.6,1.8-1.6c1,0,1.7,0.7,1.7,1.6S10.4,10.6,9.3,10.6z M21.4,21.7L21.4,21.7
	c-0.9,0-1.6-0.7-1.6-1.6v-3.5c0-1.4-0.9-1.6-1.2-1.6s-1.4,0-1.4,1.6V20c0,0.9-0.7,1.6-1.6,1.6h-0.1c-0.9,0-1.6-0.7-1.6-1.6v-6
	c0-0.9,0.8-1.7,1.7-1.7l0,0c0.9,0,1.7,0.8,1.7,1.7c0,0,0.4-1.7,2.9-1.7c1.6,0,2.9,1.3,2.9,4.2V20C23,20.9,22.3,21.7,21.4,21.7z"/>
</svg>
