<?xml version="1.0" encoding="UTF-8"?>
<svg xmlns="http://www.w3.org/2000/svg" xmlns:xlink="http://www.w3.org/1999/xlink" viewBox="0 0 16 16" width="16px" height="16px">
<g id="surface3722317">
<path style=" stroke:none;fill-rule:nonzero;fill:rgb(6.27451%,18.82353%,17.647059%);fill-opacity:1;" d="M 8 1.023438 C 7.738281 1.023438 7.472656 1.09375 7.238281 1.230469 L 2.738281 3.878906 C 2.285156 4.148438 2 4.644531 2 5.171875 L 2 11.003906 C 2 11.554688 2.300781 12.058594 2.78125 12.320312 L 4.257812 13.125 C 4.484375 13.25 4.730469 13.308594 4.976562 13.308594 C 5.238281 13.308594 5.5 13.238281 5.738281 13.097656 C 6.199219 12.828125 6.472656 12.34375 6.472656 11.808594 L 6.472656 5.464844 L 5.472656 5.464844 L 5.472656 11.808594 C 5.472656 12.066406 5.300781 12.195312 5.226562 12.238281 C 5.15625 12.28125 4.960938 12.371094 4.734375 12.246094 L 3.261719 11.445312 C 3.101562 11.355469 3 11.1875 3 11.003906 L 3 5.171875 C 3 4.996094 3.09375 4.832031 3.246094 4.738281 L 7.746094 2.089844 C 7.902344 2 8.097656 2 8.253906 2.089844 L 12.753906 4.738281 C 12.90625 4.832031 13 4.996094 13 5.171875 L 13 11.011719 C 13 11.191406 12.898438 11.359375 12.738281 11.449219 L 8.238281 13.898438 C 8.089844 13.980469 7.910156 13.980469 7.761719 13.898438 L 6.882812 13.417969 C 6.710938 13.628906 6.5 13.8125 6.25 13.960938 C 6.171875 14.011719 6.089844 14.050781 6.011719 14.078125 L 7.28125 14.777344 C 7.507812 14.898438 7.75 14.960938 8 14.960938 C 8.25 14.960938 8.492188 14.898438 8.71875 14.777344 L 13.21875 12.320312 C 13.699219 12.058594 14 11.558594 14 11.011719 L 14 5.171875 C 14 4.644531 13.71875 4.148438 13.261719 3.878906 L 8.761719 1.230469 C 8.527344 1.09375 8.261719 1.023438 8 1.023438 Z M 9.449219 5.320312 C 7.871094 5.320312 7.070312 5.867188 7.070312 6.957031 C 7.070312 8.183594 8.488281 8.367188 9.167969 8.457031 C 9.265625 8.46875 9.351562 8.480469 9.421875 8.492188 L 9.722656 8.542969 C 10.761719 8.71875 11 8.835938 11 9.171875 C 11 9.332031 11 9.824219 9.453125 9.824219 C 8.136719 9.824219 7.871094 9.433594 7.871094 8.847656 L 6.871094 8.847656 C 6.871094 9.75 7.316406 10.824219 9.453125 10.824219 C 11.558594 10.824219 12 9.925781 12 9.171875 C 12 7.914062 10.777344 7.707031 9.886719 7.554688 L 9.601562 7.507812 C 9.515625 7.492188 9.410156 7.480469 9.296875 7.464844 C 8.660156 7.382812 8.070312 7.265625 8.070312 6.957031 C 8.070312 6.734375 8.070312 6.320312 9.453125 6.316406 C 10.371094 6.316406 10.839844 6.621094 10.839844 7.214844 L 11.839844 7.214844 C 11.839844 6.300781 11.210938 5.316406 9.453125 5.316406 Z M 9.449219 5.320312 "/>
</g>
</svg>
