<svg id="Layer_1" data-name="Layer 1" xmlns="http://www.w3.org/2000/svg" viewBox="0 0 30 30"><defs><style>.cls-1{fill:#f5f5f7;}</style></defs><path class="cls-1" d="M24.3,3H5.7A2.69,2.69,0,0,0,3,5.7V24.4A2.67,2.67,0,0,0,5.7,27H24.4a2.69,2.69,0,0,0,2.7-2.7V5.7A2.84,2.84,0,0,0,24.3,3ZM9.3,21.7h0A1.75,1.75,0,0,1,7.6,20V14a1.75,1.75,0,0,1,1.7-1.7h0A1.75,1.75,0,0,1,11,14v6A1.75,1.75,0,0,1,9.3,21.7Zm0-11.1A1.61,1.61,0,0,1,7.6,9,1.64,1.64,0,0,1,9.4,7.4,1.61,1.61,0,0,1,11.1,9,1.64,1.64,0,0,1,9.3,10.6ZM21.4,21.7h0a1.58,1.58,0,0,1-1.6-1.6V16.6c0-1.4-.9-1.6-1.2-1.6s-1.4,0-1.4,1.6V20a1.58,1.58,0,0,1-1.6,1.6h-.1A1.58,1.58,0,0,1,13.9,20V14a1.75,1.75,0,0,1,1.7-1.7h0A1.75,1.75,0,0,1,17.3,14s.4-1.7,2.9-1.7c1.6,0,2.9,1.3,2.9,4.2V20A1.83,1.83,0,0,1,21.4,21.7Z"/></svg>