<svg id="Layer_1" data-name="Layer 1" xmlns="http://www.w3.org/2000/svg" viewBox="0 0 41 38.36"><defs><style>.cls-1{fill:#f5f5f7;}.cls-2{fill:#6a8060;}</style></defs><path class="cls-1" d="M23.65,46a2.44,2.44,0,0,1-2.16-1,3.6,3.6,0,0,1-.43-2.64l4.36-27.57a3.47,3.47,0,0,1,1.15-2.27,3.67,3.67,0,0,1,2.4-.75H39c3.74,0,6.58.81,8.54,2.42a8.58,8.58,0,0,1,2.92,7,11.14,11.14,0,0,1-3.4,8.63Q43.68,33,37.22,33H28.68l-1.58,10A3.77,3.77,0,0,1,26,45.24,3.35,3.35,0,0,1,23.65,46Zm5.8-17.88h8.06a7.51,7.51,0,0,0,5.25-1.66,6.18,6.18,0,0,0,1.79-4.77A4.55,4.55,0,0,0,43,17.89a7.47,7.47,0,0,0-4.68-1.23h-7Z" transform="translate(-9.5 -11.82)"/><path class="cls-2" d="M12.33,50.17a3,3,0,0,1-2.11-.59,2.19,2.19,0,0,1-.72-1.85,2.94,2.94,0,0,1,.63-1.89,2.34,2.34,0,0,1,1.77-.7l1.49-.1a5.16,5.16,0,0,0,3.5-1.39,6.57,6.57,0,0,0,1.63-3.74l3.4-21.43A3.38,3.38,0,0,1,23,16.35a3.31,3.31,0,0,1,2.25-.7,2.73,2.73,0,0,1,2.25.89A3,3,0,0,1,28,19l-3.4,21.43a14.65,14.65,0,0,1-1.68,5,8.3,8.3,0,0,1-3.4,3.21,14.67,14.67,0,0,1-5.71,1.39Z" transform="translate(-9.5 -11.82)"/></svg>