<?xml version="1.0" encoding="utf-8"?>
<!-- Generator: Adobe Illustrator 25.0.1, SVG Export Plug-In . SVG Version: 6.00 Build 0)  -->
<svg version="1.1" id="Layer_1" xmlns="http://www.w3.org/2000/svg" xmlns:xlink="http://www.w3.org/1999/xlink" x="0px" y="0px"
	 viewBox="0 0 41 38.4" style="enable-background:new 0 0 41 38.4;" xml:space="preserve">
<style type="text/css">
	.st0{fill:#A2C78F;}
	.st1{fill:#6A8060;}
</style>
<path class="st0" d="M14.1,34.2c-0.8,0.1-1.7-0.3-2.2-1c-0.5-0.8-0.6-1.7-0.4-2.6L15.9,3c0.1-0.9,0.5-1.7,1.1-2.3
	c0.7-0.5,1.5-0.8,2.4-0.8h10c3.7,0,6.6,0.8,8.5,2.4c2,1.8,3.1,4.3,2.9,7c0.2,3.2-1.1,6.4-3.4,8.6c-2.3,2.1-5.5,3.2-9.8,3.2h-8.5
	l-1.6,10c-0.1,0.8-0.5,1.6-1.1,2.2C15.8,34,15,34.2,14.1,34.2z M20,16.3H28c1.9,0.1,3.8-0.5,5.2-1.7c1.3-1.3,1.9-3,1.8-4.8
	c0.1-1.4-0.5-2.9-1.6-3.8c-1.4-0.9-3-1.4-4.7-1.2h-7L20,16.3z"/>
<path class="st1" d="M2.8,38.3c-0.8,0.1-1.5-0.1-2.1-0.6c-0.5-0.5-0.8-1.2-0.7-1.8c0-0.7,0.2-1.4,0.6-1.9c0.5-0.5,1.1-0.7,1.8-0.7
	l1.5-0.1c1.3,0,2.6-0.5,3.5-1.4c0.9-1,1.5-2.4,1.6-3.7l3.4-21.4c0.1-0.8,0.5-1.6,1.1-2.1c0.6-0.5,1.4-0.8,2.2-0.7
	c0.8-0.1,1.7,0.3,2.2,0.9c0.5,0.7,0.7,1.6,0.5,2.5l-3.4,21.4c-0.3,1.8-0.8,3.4-1.7,5c-0.8,1.4-2,2.5-3.4,3.2
	c-1.8,0.8-3.7,1.3-5.7,1.4L2.8,38.3z"/>
</svg>
