<svg id="Layer_1" data-name="Layer 1" xmlns="http://www.w3.org/2000/svg" viewBox="0 0 40 40"><defs><style>.cls-1{fill:#f5f5f7;}</style></defs><path class="cls-1" d="M4.44,26.77a1,1,0,0,1-.77-.29,1.14,1.14,0,0,1-.28-.81V11.59a1.06,1.06,0,0,1,.29-.8,1.1,1.1,0,0,1,.79-.28H9.9a5.78,5.78,0,0,1,4,1.28,4.64,4.64,0,0,1,1.4,3.59,4.63,4.63,0,0,1-1.4,3.6,5.73,5.73,0,0,1-4,1.28H5.52v5.41a1.18,1.18,0,0,1-.26.81A1.08,1.08,0,0,1,4.44,26.77Zm1.08-8.22H9.63a3.9,3.9,0,0,0,2.68-.81,3,3,0,0,0,.9-2.36,2.93,2.93,0,0,0-.9-2.34,4,4,0,0,0-2.68-.79H5.52Z"/><path class="cls-1" d="M15.47,26.75a3.11,3.11,0,0,1-1.38-.31,2.42,2.42,0,0,1-1-.82,2,2,0,0,1-.34-1.16,1.87,1.87,0,0,1,.41-1.29,2.48,2.48,0,0,1,1.38-.68,13.07,13.07,0,0,1,2.62-.2h.72v.88h-.69a12.59,12.59,0,0,0-1.85.11,1.73,1.73,0,0,0-1,.37,1,1,0,0,0-.27.74,1.25,1.25,0,0,0,.42,1,1.59,1.59,0,0,0,1.14.38,1.82,1.82,0,0,0,1-.28,2,2,0,0,0,.7-.76,2.21,2.21,0,0,0,.26-1.1V21.85a2,2,0,0,0-.36-1.31,1.66,1.66,0,0,0-1.24-.4,4.18,4.18,0,0,0-1,.14A5.67,5.67,0,0,0,14,20.7a.55.55,0,0,1-.4.07.37.37,0,0,1-.26-.18.62.62,0,0,1-.11-.32.59.59,0,0,1,.08-.34.52.52,0,0,1,.29-.25,6,6,0,0,1,1.34-.48,6.19,6.19,0,0,1,1.23-.14,3.67,3.67,0,0,1,1.63.31,2,2,0,0,1,1,1A3.62,3.62,0,0,1,19,22v4a.76.76,0,0,1-.16.53.66.66,0,0,1-.49.19.62.62,0,0,1-.48-.19.72.72,0,0,1-.18-.53V24.92h.14a2.14,2.14,0,0,1-.46,1,2.18,2.18,0,0,1-.83.64A2.82,2.82,0,0,1,15.47,26.75Z"/><path class="cls-1" d="M24.55,29.49A6.47,6.47,0,0,1,23,29.3a4.88,4.88,0,0,1-1.39-.56.71.71,0,0,1-.27-.28.62.62,0,0,1,0-.33.64.64,0,0,1,.16-.29.44.44,0,0,1,.27-.17.38.38,0,0,1,.33.07,4.69,4.69,0,0,0,1.27.51,5.47,5.47,0,0,0,1.16.14,2.16,2.16,0,0,0,1.62-.55,2.27,2.27,0,0,0,.54-1.63V24.57h.14a2.27,2.27,0,0,1-1,1.36,3,3,0,0,1-1.71.5A3.22,3.22,0,0,1,22.35,26a3.09,3.09,0,0,1-1.16-1.29,4.22,4.22,0,0,1-.41-1.93A4.78,4.78,0,0,1,21,21.23a3.4,3.4,0,0,1,.67-1.16,2.9,2.9,0,0,1,1.05-.74,3.32,3.32,0,0,1,1.37-.27,3,3,0,0,1,1.72.5,2.3,2.3,0,0,1,.94,1.36l-.17.21V19.79a.68.68,0,0,1,.18-.52.73.73,0,0,1,.52-.18.68.68,0,0,1,.5.18.65.65,0,0,1,.19.52V26a3.47,3.47,0,0,1-.88,2.59A3.46,3.46,0,0,1,24.55,29.49Zm-.15-4.16A2.14,2.14,0,0,0,25.58,25a2,2,0,0,0,.76-.9,3.27,3.27,0,0,0,.27-1.38,2.78,2.78,0,0,0-.6-1.89,2,2,0,0,0-1.61-.69,2.14,2.14,0,0,0-1.18.31,2.1,2.1,0,0,0-.77.89,3.24,3.24,0,0,0-.27,1.38,2.82,2.82,0,0,0,.6,1.89A2,2,0,0,0,24.4,25.33Z"/><path class="cls-1" d="M33.62,26.75a4.26,4.26,0,0,1-2.06-.47A3.25,3.25,0,0,1,30.23,25a4.11,4.11,0,0,1-.47-2,4.22,4.22,0,0,1,.46-2,3.4,3.4,0,0,1,1.28-1.35,3.49,3.49,0,0,1,1.86-.49,3.42,3.42,0,0,1,1.35.25,3,3,0,0,1,1,.72,3.31,3.31,0,0,1,.65,1.15,5.13,5.13,0,0,1,.22,1.53.48.48,0,0,1-.15.38.62.62,0,0,1-.42.13h-5.2v-.89h4.85l-.26.21a3.39,3.39,0,0,0-.23-1.34,1.89,1.89,0,0,0-.69-.85,2,2,0,0,0-1.12-.28,2.17,2.17,0,0,0-1.24.34,2.09,2.09,0,0,0-.79,1,3.33,3.33,0,0,0-.28,1.42v.09A2.92,2.92,0,0,0,31.74,25a2.42,2.42,0,0,0,1.88.7,4.34,4.34,0,0,0,1-.12,3,3,0,0,0,1-.44A.73.73,0,0,1,36,25a.41.41,0,0,1,.31.12.52.52,0,0,1,.15.27.63.63,0,0,1,0,.35.66.66,0,0,1-.29.31,3.69,3.69,0,0,1-1.2.55A5.27,5.27,0,0,1,33.62,26.75Z"/></svg>